<svg width="22" height="22" viewBox="0 0 22 22" fill="none" xmlns="http://www.w3.org/2000/svg">
<path d="M16.33 8.57685L8.73789 16.1822C7.98187 16.9395 5.73764 17.2903 5.23628 16.7881C4.73492 16.2858 5.07712 14.0377 5.83314 13.2803L13.4332 5.66702C13.6206 5.46218 13.8475 5.29753 14.1003 5.18297C14.3529 5.06841 14.6262 5.00631 14.9036 5.00045C15.1808 4.99461 15.4565 5.04511 15.7138 5.14891C15.9711 5.25272 16.2047 5.40769 16.4006 5.60444C16.5964 5.8012 16.7505 6.03565 16.8534 6.29368C16.9563 6.55171 17.006 6.82794 16.9994 7.10573C16.9928 7.38352 16.93 7.65711 16.815 7.90995C16.7 8.16278 16.535 8.38966 16.33 8.57685Z" stroke="black" stroke-width="1.5" stroke-linecap="round" stroke-linejoin="round"/>
<path d="M15 17.5H12.5H10" stroke="black" stroke-linecap="round"/>
<path d="M21 11C21 15.714 21 18.0711 19.5355 19.5355C18.0711 21 15.714 21 11 21C6.28595 21 3.92893 21 2.46447 19.5355C1 18.0711 1 15.714 1 11C1 6.28595 1 3.92893 2.46447 2.46447C3.92893 1 6.28595 1 11 1C15.714 1 18.0711 1 19.5355 2.46447C20.5093 3.43821 20.8356 4.80655 20.9449 7" stroke="black" stroke-width="2" stroke-linecap="round"/>
</svg>
