<svg width="22" height="22" viewBox="0 0 22 22" fill="none" xmlns="http://www.w3.org/2000/svg">
<path d="M21 11C21 15.714 21 18.0711 19.5355 19.5355C18.0711 21 15.714 21 11 21C6.28595 21 3.92893 21 2.46447 19.5355C1 18.0711 1 15.714 1 11C1 6.28595 1 3.92893 2.46447 2.46447C3.92893 1 6.28595 1 11 1C15.714 1 18.0711 1 19.5355 2.46447C20.5093 3.43821 20.8356 4.80655 20.9449 7" stroke="white" stroke-width="2" stroke-linecap="round"/>
<path d="M11 4.23607L12.0696 7.52786C12.3373 8.35191 13.1052 8.90983 13.9717 8.90983H17.4329L14.6327 10.9443C13.9317 11.4536 13.6384 12.3563 13.9062 13.1803L14.9757 16.4721L12.1756 14.4377C11.4746 13.9284 10.5254 13.9284 9.82443 14.4377L7.02426 16.4721L8.09383 13.1803C8.36158 12.3563 8.06826 11.4536 7.36729 10.9443L4.56712 8.90983L8.02832 8.90983C8.89477 8.90983 9.66268 8.35191 9.93043 7.52786L11 4.23607Z" stroke="white" stroke-width="2"/>
</svg>
