<svg width="22" height="22" viewBox="0 0 22 22" fill="none" xmlns="http://www.w3.org/2000/svg">
<path d="M21 11C21 15.714 21 18.0711 19.5355 19.5355C18.0711 21 15.714 21 11 21C6.28595 21 3.92893 21 2.46447 19.5355C1 18.0711 1 15.714 1 11C1 6.28595 1 3.92893 2.46447 2.46447C3.92893 1 6.28595 1 11 1C15.714 1 18.0711 1 19.5355 2.46447C20.5093 3.43821 20.8356 4.80655 20.9449 7" stroke="white" stroke-width="2" stroke-linecap="round"/>
<path fill-rule="evenodd" clip-rule="evenodd" d="M12.915 14.0097L16.7602 10.6249C16.912 10.4946 17 10.2996 17 10.0937C17 9.88784 16.912 9.69294 16.7602 9.56259L12.915 6.17773C12.7099 5.99361 12.4228 5.94846 12.1753 6.06145C11.9279 6.17444 11.7635 6.42577 11.7518 6.70887V8.04392C6.35345 7.06176 5 12.1355 5 15C6.2523 12.8178 9.49749 8.86221 11.7518 12.1355V13.4741C11.7619 13.758 11.9257 14.0109 12.1734 14.125C12.4212 14.239 12.7093 14.1943 12.915 14.0097Z" stroke="white" stroke-width="2" stroke-linecap="round" stroke-linejoin="round"/>
</svg>
